<?xml version="1.0" encoding="utf-8"?>
<svg viewBox="-2 -2 28 28" width="28" height="28" fill="black" xmlns="http://www.w3.org/2000/svg">
  <rect style="fill: rgb(157, 157, 157);" x="-2" y="-2" width="28" height="28" rx="4" ry="4"/>
  <g style="fill: rgb(255, 255, 255);">
    <polygon points="8,4 16,4 16,7.5 13.16,10.34 14.41,11.59 18,8.01 17.99,8 18,8 18,2 6,2 6,3.17 8,5.17"/>
    <path d="M2.1,2.1L0.69,3.51l8.9,8.9L6,16l0.01,0.01H6V22h12v-1.17l2.49,2.49l1.41-1.41L2.1,2.1z M16,20H8v-3.5l2.84-2.84L16,18.83 V20z"/>
  </g>
</svg>
